<?xml version="1.0" encoding="utf-8"?>
<svg viewBox="0 0 1000 189" xmlns="http://www.w3.org/2000/svg">
  <!-- G -->
  <path fill="#4385f5"
    d=" M 70.55 0.00 L 79.16 0.00 C 87.16 1.06 95.26 2.27 102.77 5.39 C 111.04 8.61 118.47 13.76 124.67 20.09 C 119.94 24.83 115.19 29.55 110.47 34.30 C 98.24 22.66 80.27 17.43 63.72 20.86 C 48.78 23.89 35.50 33.86 28.20 47.21 C 21.84 58.54 19.86 72.17 22.52 84.87 C 25.43 99.02 34.27 111.84 46.54 119.49 C 66.67 132.46 96.31 129.58 112.22 111.21 C 118.10 104.44 121.48 95.68 122.05 86.75 C 106.14 86.76 90.23 86.76 74.32 86.73 C 74.35 80.12 74.27 73.50 74.34 66.89 C 96.82 66.90 119.31 66.87 141.79 66.87 C 144.38 82.67 142.64 99.59 134.69 113.69 C 126.88 127.77 113.26 138.20 98.00 143.09 C 81.07 148.57 62.12 148.28 45.63 141.41 C 30.69 135.30 17.89 124.11 9.88 110.08 C 3.91 99.87 0.77 88.17 0.00 76.41 L 0.00 69.60 C 1.44 49.84 10.55 30.58 25.81 17.78 C 38.19 7.02 54.25 1.01 70.55 0.00 Z" />
  <!-- O(1) -->
  <path fill="#dc4437"
    d="M 189.17 52.25 C 203.4 49.53 218.73 53.77 229.51 63.43 C 239.39 72.02 245.4 84.85 245.68 97.94 C 246.12 109.66 241.93 121.43 234.33 130.35 C 224.16 142.51 207.62 148.93 191.9 146.83 C 177.07 145.08 163.4 135.84 156.16 122.79 C 150.13 112.25 148.57 99.36 151.47 87.61 C 155.73 69.8 171.14 55.39 189.17 52.25 Z M 172.64 110.13 C 176.88 122.69 190.96 131.42 204.07 127.82 C 219.66 124.1 228.55 105.85 223.87 90.93 C 220.42 77.12 205.27 66.95 191.21 71.16 C 175.08 75.36 166.52 95.03 172.64 110.13 Z" />
  <!-- O(2) -->
  <path fill="#f5b401"
    d="M 292.19 52.26 C 303.6 50.08 315.77 52.29 325.69 58.32 C 339.13 66.33 348.23 81.26 348.78 96.94 C 349.54 109.73 344.75 122.68 335.99 132.01 C 328.7 139.86 318.69 145.14 308.08 146.66 C 296.1 148.56 283.45 145.51 273.55 138.52 C 261.39 130.12 253.61 115.76 253.21 100.99 C 252.71 88.08 257.7 75.02 266.84 65.87 C 273.63 58.88 282.61 54.05 292.19 52.26 Z M 274.09 103.03 C 275.27 115.87 285.92 127.64 299.06 128.49 C 309.11 129.43 319.02 123.64 323.98 115.01 C 331.04 103.42 329.07 87.15 319.2 77.77 C 313.34 71.94 304.64 69.14 296.49 70.68 C 281.85 73.17 272.04 88.7 274.09 103.03 Z" />
  <!-- G(2)-->
  <path fill="#4385f5"
    d="M 367.34 70.37 C 375.23 59.91 387.85 52.84 401.05 52.59 C 410.95 52.61 421.62 55.36 428.19 63.27 C 428.19 60.6 428.2 57.92 428.22 55.25 C 434.77 55.23 441.32 55.25 447.87 55.27 C 447.79 85.5 447.84 115.74 447.84 145.98 C 447.57 158.79 441.99 171.79 431.9 179.91 C 425.11 185.44 416.45 188.15 407.84 189 L 400.57 189 C 383.74 188.13 366.95 177.89 361.32 161.51 C 367.02 158.77 373 156.67 378.91 154.45 C 381.62 159.09 384.79 163.63 389.24 166.76 C 401.1 175.84 420.76 170.22 426.2 156.35 C 429.13 149.82 428.03 142.53 428.14 135.61 C 422.46 141.02 415.49 145.45 407.57 146.46 C 396.03 147.78 384.29 143.8 375.15 136.83 C 363.29 127.82 356.25 112.89 356.97 98.02 C 357.77 88.08 361.17 78.26 367.34 70.37 Z M 385.46 79.47 C 376.96 88.73 375.69 103.43 381.67 114.35 C 385.51 121.51 392.74 127.04 400.94 127.87 C 409.64 128.98 418.79 125.15 423.84 117.93 C 431.54 106.85 431.35 90.62 422.92 79.99 C 417.22 72.82 407.34 69.75 398.49 71.74 C 393.48 72.89 388.89 75.65 385.46 79.47 Z" />
  <!-- L -->
  <path fill="#109d59"
    d=" M 461.69 4.78 C 468.60 4.82 475.52 4.80 482.43 4.79 C 482.46 51.25 482.44 97.71 482.45 144.17 C 475.53 144.19 468.61 144.19 461.70 144.16 C 461.69 97.70 461.71 51.24 461.69 4.78 Z" />
  <!-- E(1) -->
  <path fill="#dc4437"
    d="M 521.08 54.93 C 532.25 50.75 545.2 51.53 555.69 57.27 C 567.53 63.49 575.92 75.24 579.04 88.14 C 557.8 96.67 536.51 105.06 515.31 113.7 C 520.93 126.78 538.28 131.63 550.63 125.53 C 555.43 123.3 559.2 119.37 562.25 115.12 C 567.74 118.7 573.04 122.57 578.43 126.32 C 572.13 134.17 564.31 141.23 554.58 144.4 C 544.76 147.5 533.88 148.44 524.01 145.05 C 508.72 140.12 496.7 126.63 493.35 110.95 C 490.84 99.16 492.03 86.39 497.69 75.66 C 502.62 66.22 511.05 58.59 521.08 54.93 Z M 512.34 97.87 C 526.42 92.16 540.52 86.49 554.68 80.96 C 552.17 74.69 545.5 71.19 539.02 70.77 C 532.67 69.91 526.54 72.87 521.62 76.63 C 515.22 81.61 512.06 89.88 512.34 97.87 Z" />
  <!-- F -->
  <path fill="#4385f5"
    d=" M 645.19 2.34 C 668.71 2.33 692.23 2.33 715.76 2.35 C 715.72 8.33 715.74 14.32 715.74 20.31 C 698.99 20.30 682.24 20.30 665.49 20.31 C 665.52 33.08 665.49 45.86 665.51 58.63 C 682.12 58.62 698.73 58.64 715.34 58.62 C 715.34 64.61 715.32 70.60 715.35 76.58 C 698.74 76.58 682.13 76.59 665.52 76.58 C 665.47 99.11 665.53 121.64 665.49 144.17 C 658.72 144.19 651.95 144.20 645.18 144.16 C 645.19 96.89 645.18 49.62 645.19 2.34 Z" />
  <!-- E(2) -->
  <path fill="#dc4437"
    d="M 743.92 56.89 C 755.24 51.08 769.22 50.72 780.76 56.14 C 793.7 62.04 803.11 74.4 806.34 88.15 C 785.13 96.68 763.84 105.02 742.69 113.7 C 748.48 127.44 767.29 132.01 779.67 124.63 C 783.75 122.34 786.85 118.77 789.67 115.11 C 795.05 118.82 800.44 122.52 805.73 126.35 C 800.03 133.51 793.07 139.99 784.46 143.43 C 777.36 146.34 769.58 147.36 761.95 147.14 C 743.95 146.04 727.74 132.94 722.07 115.95 C 717.95 103.44 718.54 89.27 724.2 77.32 C 728.29 68.59 735.31 61.25 743.92 56.89 Z M 739.65 97.84 C 753.75 92.17 767.84 86.5 781.98 80.95 C 779.49 74.52 772.53 71.09 765.95 70.75 C 759.89 70 754.1 72.83 749.35 76.32 C 742.73 81.29 739.36 89.68 739.65 97.84 Z" />
  <!-- U(2)-->
  <path fill="#f5b401"
    d=" M 819.28 55.06 C 825.60 55.14 831.93 55.09 838.25 55.08 C 838.29 71.27 838.12 87.47 838.34 103.66 C 838.97 111.22 840.07 119.69 845.59 125.38 C 853.83 131.88 868.52 130.47 873.60 120.61 C 876.93 113.94 877.44 106.30 877.48 98.97 C 877.50 84.33 877.51 69.70 877.46 55.07 C 883.82 55.13 890.19 55.08 896.56 55.10 C 896.59 72.40 896.58 89.71 896.56 107.01 C 896.53 116.13 894.73 125.67 889.18 133.12 C 883.46 141.06 873.92 145.54 864.35 146.56 C 853.41 147.66 841.47 146.37 832.53 139.43 C 823.23 132.38 819.48 120.29 819.29 109.01 C 819.23 91.03 819.26 73.05 819.28 55.06 Z" />
  <!-- D -->
  <path fill="#109d59"
    d="M 981.06 4.75 C 987.37 4.84 993.68 4.78 1000 4.81 L 1000 143.92 C 993.63 143.9 987.27 143.96 980.91 143.88 C 980.87 140.33 980.91 136.78 981.11 133.24 C 978.96 135.72 976.78 138.23 974.11 140.17 C 960.82 149.85 941.29 148.38 928.47 138.57 C 916.6 129.66 910.91 114.48 910.81 99.97 C 910.58 86.51 915.44 72.63 925.52 63.42 C 935.95 53.58 951.8 50.01 965.46 54.32 C 971.81 56.3 976.97 60.81 980.93 66.03 C 980.98 45.61 980.72 25.18 981.06 4.75 Z M 935.15 81.21 C 927.54 93.8 928.52 111.38 938.39 122.51 C 947.4 133.12 966.41 133.22 974.89 121.9 C 985.03 108.65 984.4 87.51 972.23 75.74 C 966.07 69.71 956.51 68.37 948.46 70.78 C 942.91 72.41 938.25 76.39 935.15 81.21 Z" />
</svg>